<svg width="120" height="120" viewBox="0 0 120 120" fill="none" xmlns="http://www.w3.org/2000/svg">
<g clip-path="url(#clip0_17704_4)">
<rect width="120" height="120" fill="white"/>
<rect width="120" height="120" fill="black"/>
<path d="M14.4631 66.1989C13.4877 66.1989 12.6165 66.0308 11.8494 65.6946C11.0871 65.3584 10.4834 64.892 10.0384 64.2955C9.59801 63.6941 9.36127 62.9981 9.32812 62.2074H11.5582C11.5866 62.6383 11.7311 63.0123 11.9915 63.3295C12.2566 63.642 12.6023 63.8835 13.0284 64.054C13.4545 64.2244 13.928 64.3097 14.4489 64.3097C15.0218 64.3097 15.5284 64.2102 15.9688 64.0114C16.4138 63.8125 16.7618 63.5355 17.0128 63.1804C17.2637 62.8205 17.3892 62.4062 17.3892 61.9375C17.3892 61.4498 17.2637 61.0213 17.0128 60.652C16.7666 60.2779 16.4044 59.9844 15.9261 59.7713C15.4527 59.5582 14.8797 59.4517 14.2074 59.4517H12.9787V57.6619H14.2074C14.7472 57.6619 15.2206 57.5649 15.6278 57.3707C16.0398 57.1766 16.3617 56.9067 16.5938 56.5611C16.8258 56.2107 16.9418 55.8011 16.9418 55.3324C16.9418 54.8826 16.84 54.492 16.6364 54.1605C16.4375 53.8243 16.1534 53.5616 15.7841 53.3722C15.4195 53.1828 14.9886 53.0881 14.4915 53.0881C14.018 53.0881 13.5753 53.1757 13.1634 53.3509C12.7562 53.5213 12.4247 53.7675 12.169 54.0895C11.9134 54.4067 11.776 54.7879 11.7571 55.233H9.63352C9.6572 54.447 9.8892 53.7557 10.3295 53.1591C10.7746 52.5625 11.3617 52.0961 12.0909 51.7599C12.8201 51.4238 13.6297 51.2557 14.5199 51.2557C15.4527 51.2557 16.2576 51.438 16.9347 51.8026C17.6165 52.1624 18.142 52.643 18.5114 53.2443C18.8854 53.8456 19.0701 54.5038 19.0653 55.2188C19.0701 56.0331 18.8428 56.7244 18.3835 57.2926C17.929 57.8608 17.3229 58.242 16.5653 58.4361V58.5497C17.5313 58.6965 18.2794 59.08 18.8097 59.7003C19.3447 60.3205 19.6098 61.09 19.6051 62.0085C19.6098 62.8087 19.3873 63.526 18.9375 64.1605C18.4924 64.795 17.884 65.2945 17.1122 65.6591C16.3404 66.0189 15.4574 66.1989 14.4631 66.1989ZM25.4929 66.2415C24.8016 66.2415 24.1766 66.1136 23.6179 65.858C23.0592 65.5975 22.6165 65.2211 22.2898 64.7287C21.9678 64.2363 21.8068 63.6326 21.8068 62.9176C21.8068 62.3021 21.9252 61.7955 22.1619 61.3977C22.3987 61 22.7183 60.6851 23.1207 60.4531C23.5232 60.2211 23.973 60.0459 24.4702 59.9276C24.9673 59.8092 25.474 59.7192 25.9901 59.6577C26.6435 59.5819 27.1738 59.5204 27.581 59.473C27.9882 59.4209 28.2841 59.3381 28.4688 59.2244C28.6534 59.1108 28.7457 58.9261 28.7457 58.6705V58.6207C28.7457 58.0005 28.5705 57.5199 28.2202 57.179C27.8745 56.8381 27.3584 56.6676 26.6719 56.6676C25.9569 56.6676 25.3935 56.8262 24.9815 57.1435C24.5743 57.456 24.2926 57.804 24.1364 58.1875L22.1406 57.733C22.3774 57.0701 22.723 56.535 23.1776 56.1278C23.6368 55.7159 24.1648 55.4176 24.7614 55.233C25.358 55.0436 25.9853 54.9489 26.6435 54.9489C27.0791 54.9489 27.5407 55.0009 28.0284 55.1051C28.5208 55.2045 28.9801 55.3892 29.4062 55.6591C29.8371 55.929 30.1899 56.3149 30.4645 56.8168C30.7391 57.3139 30.8764 57.9602 30.8764 58.7557V66H28.8026V64.5085H28.7173C28.58 64.7831 28.3741 65.053 28.0994 65.3182C27.8248 65.5833 27.4721 65.8035 27.0412 65.9787C26.6103 66.1539 26.0942 66.2415 25.4929 66.2415ZM25.9545 64.5369C26.5417 64.5369 27.0436 64.4209 27.4602 64.1889C27.8816 63.9569 28.2012 63.6539 28.419 63.2798C28.6416 62.901 28.7528 62.4962 28.7528 62.0653V60.6591C28.6771 60.7348 28.5303 60.8059 28.3125 60.8722C28.0994 60.9337 27.8556 60.9882 27.581 61.0355C27.3063 61.0781 27.0388 61.1184 26.7784 61.1562C26.518 61.1894 26.3002 61.2178 26.125 61.2415C25.7131 61.2936 25.3366 61.3812 24.9957 61.5043C24.6596 61.6274 24.3897 61.8049 24.1861 62.0369C23.9872 62.2642 23.8878 62.5672 23.8878 62.946C23.8878 63.4716 24.0819 63.8693 24.4702 64.1392C24.8584 64.4044 25.3532 64.5369 25.9545 64.5369ZM40.6793 55.0909V56.9233H35.8001V66H33.7049V55.0909H40.6793ZM42.9237 70.0909V55.0909H44.9975V56.8594H45.1751C45.2982 56.6321 45.4757 56.3693 45.7077 56.071C45.9397 55.7727 46.2617 55.5123 46.6737 55.2898C47.0856 55.0625 47.6301 54.9489 48.3072 54.9489C49.1879 54.9489 49.9738 55.1714 50.6651 55.6165C51.3564 56.0616 51.8986 56.7031 52.2915 57.5412C52.6893 58.3793 52.8881 59.3878 52.8881 60.5668C52.8881 61.7457 52.6916 62.7566 52.2987 63.5994C51.9057 64.4375 51.3659 65.0838 50.6793 65.5384C49.9928 65.9882 49.2092 66.2131 48.3285 66.2131C47.6656 66.2131 47.1235 66.1018 46.7021 65.8793C46.2854 65.6567 45.9587 65.3963 45.7219 65.098C45.4852 64.7997 45.3029 64.5346 45.1751 64.3026H45.0472V70.0909H42.9237ZM45.0046 60.5455C45.0046 61.3125 45.1159 61.9848 45.3384 62.5625C45.561 63.1402 45.8829 63.5923 46.3043 63.919C46.7257 64.241 47.2418 64.402 47.8526 64.402C48.4871 64.402 49.0174 64.2339 49.4435 63.8977C49.8697 63.5568 50.1916 63.0952 50.4094 62.5128C50.632 61.9304 50.7433 61.2746 50.7433 60.5455C50.7433 59.8258 50.6344 59.1795 50.4165 58.6065C50.2035 58.0336 49.8815 57.5814 49.4506 57.25C49.0245 56.9186 48.4918 56.7528 47.8526 56.7528C47.2371 56.7528 46.7163 56.9115 46.2901 57.2287C45.8687 57.5459 45.5491 57.9886 45.3313 58.5568C45.1135 59.125 45.0046 59.7879 45.0046 60.5455ZM56.2386 70.0909C55.9214 70.0909 55.6326 70.0649 55.3722 70.0128C55.1117 69.9654 54.9176 69.9134 54.7898 69.8565L55.3011 68.1165C55.6894 68.2206 56.035 68.2656 56.3381 68.2514C56.6411 68.2372 56.9086 68.1236 57.1406 67.9105C57.3774 67.6974 57.5857 67.3494 57.7656 66.8665L58.0284 66.142L54.0369 55.0909H56.3097L59.0724 63.5568H59.1861L61.9489 55.0909H64.2287L59.733 67.456C59.5246 68.0241 59.2595 68.5047 58.9375 68.8977C58.6155 69.2955 58.232 69.5938 57.7869 69.7926C57.3419 69.9915 56.8258 70.0909 56.2386 70.0909ZM65.5781 63.1165H67.7514C67.7798 63.5616 67.9811 63.9048 68.3551 64.1463C68.7339 64.3878 69.224 64.5085 69.8253 64.5085C70.4361 64.5085 70.9569 64.3783 71.3878 64.1179C71.8187 63.8527 72.0341 63.4432 72.0341 62.8892C72.0341 62.5578 71.9512 62.2689 71.7855 62.0227C71.6245 61.7718 71.3949 61.5777 71.0966 61.4403C70.803 61.303 70.455 61.2344 70.0526 61.2344H68.277V59.5653H70.0526C70.6539 59.5653 71.1037 59.428 71.402 59.1534C71.7003 58.8788 71.8494 58.5355 71.8494 58.1236C71.8494 57.6785 71.6884 57.321 71.3665 57.0511C71.0492 56.7765 70.6065 56.6392 70.0384 56.6392C69.4607 56.6392 68.9801 56.7694 68.5966 57.0298C68.2131 57.2855 68.0118 57.617 67.9929 58.0241H65.848C65.8622 57.4134 66.0469 56.8783 66.402 56.419C66.7618 55.955 67.2448 55.5952 67.8509 55.3395C68.4616 55.0791 69.1553 54.9489 69.9318 54.9489C70.7415 54.9489 71.4422 55.0791 72.0341 55.3395C72.6259 55.5999 73.0829 55.9598 73.4048 56.419C73.7315 56.8783 73.8949 57.4062 73.8949 58.0028C73.8949 58.6042 73.715 59.0966 73.3551 59.4801C73 59.8589 72.536 60.1312 71.9631 60.2969V60.4105C72.3845 60.4389 72.7585 60.5668 73.0852 60.794C73.4119 61.0213 73.6676 61.322 73.8523 61.696C74.0369 62.0701 74.1293 62.4938 74.1293 62.9673C74.1293 63.6349 73.9446 64.2126 73.5753 64.7003C73.2107 65.188 72.7041 65.5644 72.0554 65.8295C71.4115 66.09 70.6752 66.2202 69.8466 66.2202C69.0417 66.2202 68.3196 66.0947 67.6804 65.8438C67.0459 65.5881 66.5417 65.2282 66.1676 64.7642C65.7983 64.3002 65.6018 63.7509 65.5781 63.1165ZM76.3221 66V55.0909H78.4457V59.6648H79.4684L83.0692 55.0909H85.6971L81.4712 60.3963L85.7468 66H83.1119L79.8235 61.6392H78.4457V66H76.3221ZM90.571 66.2415C89.8797 66.2415 89.2547 66.1136 88.696 65.858C88.1373 65.5975 87.6946 65.2211 87.3679 64.7287C87.0459 64.2363 86.8849 63.6326 86.8849 62.9176C86.8849 62.3021 87.0033 61.7955 87.2401 61.3977C87.4768 61 87.7964 60.6851 88.1989 60.4531C88.6013 60.2211 89.0511 60.0459 89.5483 59.9276C90.0455 59.8092 90.5521 59.7192 91.0682 59.6577C91.7216 59.5819 92.2519 59.5204 92.6591 59.473C93.0663 59.4209 93.3622 59.3381 93.5469 59.2244C93.7315 59.1108 93.8239 58.9261 93.8239 58.6705V58.6207C93.8239 58.0005 93.6487 57.5199 93.2983 57.179C92.9527 56.8381 92.4366 56.6676 91.75 56.6676C91.035 56.6676 90.4716 56.8262 90.0597 57.1435C89.6525 57.456 89.3707 57.804 89.2145 58.1875L87.2188 57.733C87.4555 57.0701 87.8011 56.535 88.2557 56.1278C88.715 55.7159 89.2429 55.4176 89.8395 55.233C90.4361 55.0436 91.0634 54.9489 91.7216 54.9489C92.1572 54.9489 92.6188 55.0009 93.1065 55.1051C93.599 55.2045 94.0582 55.3892 94.4844 55.6591C94.9152 55.929 95.268 56.3149 95.5426 56.8168C95.8172 57.3139 95.9545 57.9602 95.9545 58.7557V66H93.8807V64.5085H93.7955C93.6581 64.7831 93.4522 65.053 93.1776 65.3182C92.9029 65.5833 92.5502 65.8035 92.1193 65.9787C91.6884 66.1539 91.1723 66.2415 90.571 66.2415ZM91.0327 64.5369C91.6198 64.5369 92.1217 64.4209 92.5384 64.1889C92.9598 63.9569 93.2794 63.6539 93.4972 63.2798C93.7197 62.901 93.831 62.4962 93.831 62.0653V60.6591C93.7552 60.7348 93.6084 60.8059 93.3906 60.8722C93.1776 60.9337 92.9337 60.9882 92.6591 61.0355C92.3845 61.0781 92.117 61.1184 91.8565 61.1562C91.5961 61.1894 91.3783 61.2178 91.2031 61.2415C90.7912 61.2936 90.4148 61.3812 90.0739 61.5043C89.7377 61.6274 89.4678 61.8049 89.2642 62.0369C89.0653 62.2642 88.9659 62.5672 88.9659 62.946C88.9659 63.4716 89.16 63.8693 89.5483 64.1392C89.9366 64.4044 90.4313 64.5369 91.0327 64.5369ZM100.182 66.1349C99.7939 66.1349 99.4601 65.9976 99.1808 65.723C98.9014 65.4437 98.7617 65.1075 98.7617 64.7145C98.7617 64.3262 98.9014 63.9948 99.1808 63.7202C99.4601 63.4408 99.7939 63.3011 100.182 63.3011C100.57 63.3011 100.904 63.4408 101.184 63.7202C101.463 63.9948 101.603 64.3262 101.603 64.7145C101.603 64.9749 101.536 65.214 101.404 65.4318C101.276 65.6449 101.105 65.8153 100.892 65.9432C100.679 66.071 100.443 66.1349 100.182 66.1349ZM105.846 66.1349C105.458 66.1349 105.124 65.9976 104.845 65.723C104.565 65.4437 104.426 65.1075 104.426 64.7145C104.426 64.3262 104.565 63.9948 104.845 63.7202C105.124 63.4408 105.458 63.3011 105.846 63.3011C106.234 63.3011 106.568 63.4408 106.848 63.7202C107.127 63.9948 107.267 64.3262 107.267 64.7145C107.267 64.9749 107.2 65.214 107.068 65.4318C106.94 65.6449 106.77 65.8153 106.556 65.9432C106.343 66.071 106.107 66.1349 105.846 66.1349ZM111.51 66.1349C111.122 66.1349 110.788 65.9976 110.509 65.723C110.23 65.4437 110.09 65.1075 110.09 64.7145C110.09 64.3262 110.23 63.9948 110.509 63.7202C110.788 63.4408 111.122 63.3011 111.51 63.3011C111.899 63.3011 112.232 63.4408 112.512 63.7202C112.791 63.9948 112.931 64.3262 112.931 64.7145C112.931 64.9749 112.864 65.214 112.732 65.4318C112.604 65.6449 112.434 65.8153 112.221 65.9432C112.007 66.071 111.771 66.1349 111.51 66.1349Z" fill="white"/>
</g>
<defs>
<clipPath id="clip0_17704_4">
<rect width="120" height="120" fill="white"/>
</clipPath>
</defs>
</svg>
